<svg width="32" height="32" viewBox="0 0 32 32" fill="none" xmlns="http://www.w3.org/2000/svg">
<path d="M16 0C20.4182 0 24.4183 1.79088 27.3136 4.68638C30.2091 7.58181 32 11.5818 32 16C32 20.4182 30.2091 24.4183 27.3136 27.3136C24.4183 30.2091 20.4182 32 16 32C11.5818 32 7.58175 30.2091 4.68638 27.3136C1.79088 24.4183 0 20.4182 0 16C0 11.5818 1.79088 7.58175 4.68638 4.68638C7.58181 1.79088 11.5818 0 16 0ZM21.6216 10.8903C20.5592 10.4039 19.4308 10.0572 18.2795 9.8625C18.1228 10.1433 17.9794 10.4369 17.8527 10.7327C17.2407 10.6405 16.6178 10.5933 15.9981 10.5933C15.3783 10.5933 14.7554 10.6405 14.1433 10.7316C14.0183 10.4364 13.873 10.1438 13.7154 9.86244C12.5628 10.0589 11.4364 10.4064 10.3726 10.8923C8.25731 14.0214 7.68412 17.0723 7.97075 20.0799C9.208 20.9942 10.5975 21.6914 12.0693 22.137C12.3997 21.6909 12.6958 21.216 12.9471 20.7218C12.4688 20.5438 12.0037 20.3214 11.5642 20.0618C11.6801 19.9778 11.7936 19.8911 11.9031 19.8071C13.1841 20.4086 14.5838 20.7224 16 20.7224C17.4163 20.7224 18.8159 20.4086 20.097 19.8069C20.2078 19.8974 20.3212 19.984 20.4359 20.0617C19.9958 20.3218 19.5289 20.5451 19.0504 20.7234C19.302 21.2179 19.5966 21.6921 19.9283 22.1376C21.4024 21.6931 22.7921 20.9958 24.0296 20.0809L24.0292 20.0812C24.3655 16.5934 23.4547 13.5704 21.6216 10.8903ZM13.3095 18.2302C12.5108 18.2302 11.851 17.5054 11.851 16.6137C11.851 15.722 12.4879 14.9908 13.307 14.9908C14.1261 14.9908 14.7808 15.722 14.7668 16.6137C14.7529 17.5054 14.1236 18.2302 13.3095 18.2302ZM18.6904 18.2302C17.8904 18.2302 17.2331 17.5054 17.2331 16.6137C17.2331 15.722 17.8701 14.9908 18.6904 14.9908C19.5107 14.9908 20.1604 15.722 20.1464 16.6137C20.1324 17.5054 19.5044 18.2302 18.6904 18.2302ZM26.2364 5.76363C23.6168 3.14406 19.9976 1.52381 16.0001 1.52381C12.0024 1.52381 8.38338 3.14406 5.76381 5.76363C3.14425 8.38325 1.524 12.0024 1.524 15.9999C1.524 19.9976 3.14425 23.6166 5.76381 26.2362C8.38338 28.8557 12.0026 30.476 16.0001 30.476C19.9978 30.476 23.6168 28.8557 26.2364 26.2362C28.8559 23.6166 30.4762 19.9974 30.4762 15.9999C30.4762 12.0022 28.8559 8.38325 26.2364 5.76363Z" fill="black"/>
</svg>
