<svg width="32" height="32" viewBox="0 0 32 32" fill="none" xmlns="http://www.w3.org/2000/svg">
<path d="M16 0C20.4151 0 24.4175 1.79484 27.3161 4.68386C30.2148 7.58248 32 11.5753 32 16C32 20.4151 30.2052 24.4175 27.3161 27.3161C24.4175 30.2148 20.4247 32 16 32C11.5849 32 7.58248 30.2052 4.68386 27.3161C1.78524 24.4175 0 20.4247 0 16C0 11.5849 1.79484 7.58248 4.68386 4.68386C7.58248 1.78524 11.5753 0 16 0ZM17.7373 10.913H20.6263V7.44811H17.7373C15.5105 7.44811 13.6965 9.26215 13.6965 11.4889V13.2262H11.3833V16.6911H13.6965V25.934H17.1614V16.6911H20.0504L20.6263 13.2262H17.1614V11.4889C17.1614 11.1722 17.4301 10.913 17.7373 10.913ZM26.5003 5.5093C23.8128 2.82184 20.108 1.16137 16.0096 1.16137C11.9112 1.16137 8.19676 2.82184 5.5189 5.5093C2.83143 8.19676 1.17097 11.9016 1.17097 16C1.17097 20.0984 2.83143 23.8128 5.5189 26.4907C8.20636 29.1782 11.9112 30.8386 16.0096 30.8386C20.108 30.8386 23.8224 29.1782 26.5003 26.4907C29.1878 23.8032 30.8482 20.0984 30.8482 16C30.8482 11.9016 29.1878 8.18716 26.5003 5.5093Z" fill="black"/>
</svg>
