<svg width="16" height="20" viewBox="0 0 16 20" fill="none" xmlns="http://www.w3.org/2000/svg">
<path d="M8.08149 19.3094C8.06635 19.2561 8.06245 18.913 8.07282 18.5471C8.0832 18.1812 8.0953 17.1806 8.09972 16.3236L8.10774 14.7653L8.32343 14.7006C8.44206 14.6651 8.5877 14.5742 8.64709 14.4987C8.70647 14.4233 8.78084 14.3615 8.81236 14.3615C8.90618 14.3615 9.09946 14.0792 9.09946 13.9421C9.09946 13.8588 9.21576 13.7037 9.43679 13.4922C9.62232 13.3148 9.79282 13.1626 9.81568 13.1541C9.83853 13.1457 9.88808 13.3078 9.92579 13.5145C9.98927 13.8624 9.98585 13.9065 9.87954 14.1099C9.81639 14.2307 9.76473 14.3596 9.76473 14.3963C9.76473 14.4331 9.74319 14.4714 9.71686 14.4816C9.66001 14.5035 8.78556 16.2365 8.67795 16.5405C8.62439 16.6918 8.60186 17.107 8.5983 18.0083C8.59515 18.8031 8.57177 19.2911 8.53469 19.3358C8.44401 19.445 8.11454 19.4259 8.08149 19.3094ZM7.43213 18.0759C7.40902 17.1314 7.37713 16.7037 7.31617 16.5209C7.26992 16.3822 6.96349 15.746 6.63521 15.1072C6.2148 14.2891 6.03963 13.8919 6.04271 13.7636C6.0486 13.5184 6.15645 13.1304 6.21272 13.1521C6.23766 13.1617 6.41089 13.3117 6.59769 13.4854C6.87044 13.739 6.93733 13.8346 6.93733 13.9705C6.93733 14.1502 7.10208 14.3615 7.24225 14.3615C7.28798 14.3615 7.3254 14.3983 7.3254 14.4434C7.3254 14.5543 7.52887 14.6775 7.79149 14.7255L8.00809 14.7652L7.97489 17.0304C7.95663 18.2763 7.92545 19.322 7.90559 19.3541C7.88574 19.3862 7.77826 19.4049 7.66675 19.3956L7.464 19.3787L7.43213 18.0759ZM8.70558 19.1431C8.75419 19.055 9.67612 17.9375 10.3126 17.1952C10.4534 17.031 10.5901 16.8598 10.6164 16.8148C10.6427 16.7697 10.7113 16.6858 10.7689 16.6282C10.8714 16.5257 10.8735 16.527 10.8735 16.6917C10.8735 17.0427 10.7092 17.2659 9.72165 18.2561C8.79908 19.1811 8.57818 19.374 8.70558 19.1431ZM6.26914 18.2484C5.4223 17.3932 5.27427 17.2178 5.19331 16.9741C5.09109 16.6663 5.09907 16.3796 5.20276 16.6345C5.23376 16.7107 5.27136 16.7606 5.28629 16.7454C5.30121 16.7301 5.38552 16.805 5.47362 16.9117C5.56173 17.0184 5.65892 17.1334 5.6896 17.1673C5.7203 17.2012 5.82024 17.3248 5.91171 17.4419C6.00318 17.559 6.27761 17.8902 6.52154 18.1779C6.98203 18.7209 7.32541 19.1625 7.32541 19.2117C7.32541 19.2991 7.16146 19.1496 6.26914 18.2484ZM8.78979 16.674C8.83435 16.4819 8.95757 16.1712 9.06362 15.9836C9.16968 15.7959 9.27438 15.585 9.2963 15.5148C9.31822 15.4446 9.35189 15.3746 9.37111 15.3594C9.43491 15.3088 9.76473 14.6384 9.76473 14.5593C9.76473 14.5166 9.79057 14.473 9.82216 14.4625C9.85375 14.4519 9.91271 14.347 9.95317 14.2293L10.0267 14.0153L10.2069 14.5903C10.306 14.9066 10.4984 15.4089 10.6344 15.7067L10.8816 16.248L10.7536 16.4551C10.6832 16.569 10.5699 16.7121 10.5018 16.7731C10.4337 16.8341 10.2462 17.0487 10.0852 17.25C9.70468 17.7258 8.86898 18.751 8.79595 18.8317C8.69838 18.9394 8.69311 17.0909 8.78979 16.674ZM6.86461 18.4192C6.50252 17.9572 6.11696 17.4832 5.8642 17.1894C5.45566 16.7146 5.16385 16.3165 5.16359 16.2336C5.16342 16.1809 5.26739 15.9189 5.39464 15.6515C5.52189 15.3841 5.7041 14.9185 5.79956 14.6168L5.97313 14.0683L6.59687 15.3098C7.0654 16.2424 7.23358 16.6341 7.27269 16.884C7.33457 17.2793 7.34355 18.9089 7.28382 18.9043C7.26095 18.9027 7.07231 18.6843 6.86461 18.4192ZM7.54493 14.5266C7.3218 14.4072 7.44519 14.3615 7.99068 14.3615C8.52426 14.3615 8.62467 14.3934 8.47577 14.5157C8.32206 14.6419 7.77246 14.6484 7.54493 14.5266ZM7.1024 14.1397C7.00217 13.9809 7.04624 13.9245 7.28382 13.9073C7.496 13.8919 7.52122 13.8747 7.53731 13.7344C7.54713 13.6487 7.52487 13.5421 7.48783 13.4975C7.38127 13.3691 7.47977 13.3326 7.65444 13.4358C7.85527 13.5544 8.20449 13.557 8.37 13.4411C8.52287 13.334 8.59414 13.3831 8.50139 13.5317C8.36033 13.7575 8.48116 13.9382 8.76778 13.9301C8.98039 13.924 9.02017 13.9973 8.8803 14.1371C8.77642 14.241 8.70732 14.2485 7.96143 14.2362C7.31517 14.2255 7.14446 14.2064 7.1024 14.1397ZM8.57851 13.7609C8.53737 13.6944 8.72721 13.3121 8.80247 13.3099C8.88261 13.3076 8.93314 13.4373 8.93314 13.6453C8.93314 13.7874 8.91328 13.8071 8.77009 13.8071C8.68042 13.8071 8.59421 13.7863 8.57851 13.7609ZM7.07216 13.6824C7.08494 13.6137 7.09726 13.5015 7.09953 13.4329C7.10491 13.2699 7.21674 13.2964 7.33899 13.4897C7.48962 13.7278 7.46553 13.8071 7.24259 13.8071C7.0718 13.8071 7.05165 13.7923 7.07216 13.6824ZM9.03043 13.4466C9.01584 13.3703 9.077 13.0647 9.16633 12.7675C9.28127 12.3851 9.32876 12.1096 9.32878 11.8251L9.32881 11.4232H9.48819C9.66795 11.4232 9.82017 11.2523 9.82017 11.0505C9.82017 10.9515 9.85128 10.9243 9.9642 10.9243H10.1082L10.0888 11.6588C10.0721 12.2916 10.0515 12.4297 9.94038 12.6556C9.7993 12.9423 9.23587 13.5853 9.12573 13.5853C9.0879 13.5853 9.04501 13.5229 9.03043 13.4466ZM6.61903 13.3497C6.24439 12.9651 6.22691 12.9431 6.09434 12.6909C5.98311 12.4792 5.96488 12.3531 5.9491 11.6865L5.93104 10.9243H6.07382C6.19379 10.9243 6.21661 10.9495 6.21661 11.082C6.21661 11.2642 6.35031 11.4049 6.54925 11.432C6.6809 11.45 6.68693 11.4664 6.66946 11.7605C6.65668 11.9758 6.69649 12.2291 6.80012 12.5921C6.98389 13.2357 7.01406 13.3944 6.97297 13.5015C6.92387 13.6294 6.86826 13.6056 6.61903 13.3497ZM8.10155 12.6454V11.9273L8.51526 11.4958C8.83723 11.1599 8.94374 11.079 8.99555 11.1308C9.1204 11.2557 9.07753 11.4896 8.67528 12.8785C8.59865 13.1431 8.56203 13.1973 8.45992 13.1973C8.39225 13.1973 8.30583 13.2347 8.26787 13.2804C8.22991 13.3262 8.17696 13.3636 8.1502 13.3636C8.12345 13.3636 8.10155 13.0404 8.10155 12.6454ZM7.71624 13.2837C7.6798 13.2398 7.59666 13.1962 7.53148 13.1867C7.42993 13.172 7.38266 13.0625 7.20098 12.4211C6.95917 11.5674 6.90871 11.2646 6.98853 11.146C7.03457 11.0776 7.10944 11.1267 7.41086 11.4232C7.61236 11.6214 7.81277 11.8509 7.85623 11.9333C7.96742 12.144 7.96967 13.3636 7.85887 13.3636C7.81687 13.3636 7.75268 13.3277 7.71624 13.2837ZM8.85376 12.7122C8.92017 12.4454 9.0191 12.0774 9.07362 11.8944C9.16863 11.5756 9.17459 11.5686 9.2172 11.7245C9.29389 12.0051 8.97437 13.1973 8.82247 13.1973C8.74254 13.1973 8.74587 13.1456 8.85376 12.7122ZM6.95199 12.726C6.79776 12.2339 6.7239 11.5895 6.82172 11.5895C6.85482 11.5895 6.88189 11.622 6.88189 11.6617C6.88189 11.7014 6.96921 12.0432 7.07593 12.4211C7.29939 13.2125 7.29922 13.2113 7.18048 13.1875C7.12251 13.1759 7.04204 13.0133 6.95199 12.726ZM7.21218 10.6676C7.30826 10.4896 7.32666 10.3651 7.32 9.93769C7.31558 9.65425 7.32192 9.41241 7.33406 9.40027C7.3462 9.38813 7.65483 9.37368 8.0199 9.36818L8.68366 9.3582L8.71138 9.99997C8.72889 10.4053 8.76463 10.6672 8.8084 10.7109C8.84652 10.749 8.8777 10.8088 8.8777 10.8439C8.8777 10.8789 8.68436 11.1081 8.44805 11.3532L8.0184 11.7988L7.55736 11.3404L7.09633 10.8821L7.21218 10.6676ZM10.8277 11.2012C10.7491 11.1357 10.7149 11.066 10.74 11.0228C10.8541 10.8271 11.5753 9.88942 11.6589 9.8281C11.7118 9.7893 11.788 9.72464 11.8283 9.6844C11.8685 9.64415 11.9544 9.58288 12.0191 9.54823C12.1744 9.46515 12.9975 9.20445 13.0232 9.23021C13.0468 9.25373 13.0421 9.26246 12.5615 10.0927C12.3585 10.4433 12.1265 10.8011 12.0458 10.8876C11.701 11.2576 11.0855 11.416 10.8277 11.2012ZM9.32522 11.2708C9.32743 11.2479 9.41474 11.1581 9.51925 11.0713C9.67021 10.9458 9.70929 10.9323 9.70929 11.0056C9.70929 11.1757 9.5973 11.3123 9.45786 11.3123C9.38271 11.3123 9.32301 11.2936 9.32522 11.2708ZM6.39403 11.2458C6.319 11.1708 6.30359 10.9797 6.37257 10.9797C6.39735 10.9797 6.48934 11.0545 6.57698 11.146L6.73632 11.3123H6.59844C6.5226 11.3123 6.43062 11.2824 6.39403 11.2458ZM4.47723 11.216C4.19202 11.1138 3.85719 10.8215 3.72144 10.5562C3.67681 10.4689 3.59947 10.3352 3.54956 10.259C3.389 10.0137 3.14579 9.56612 3.17087 9.56204C3.18423 9.55972 3.15152 9.51442 3.09817 9.46106C3.04481 9.4077 3.00115 9.33084 3.00115 9.29027C3.00115 9.20967 3.13123 9.23984 3.80502 9.47669C4.22158 9.62312 4.48736 9.88994 5.09373 10.7705C5.30764 11.0811 5.3117 11.1134 5.15094 11.226C4.99093 11.3381 4.81037 11.3354 4.47723 11.216ZM10.3323 11.1634C10.3853 11.1495 10.4851 11.149 10.5541 11.1624C10.623 11.1756 10.5797 11.187 10.4577 11.1876C10.3357 11.1883 10.2793 11.1774 10.3323 11.1635V11.1634ZM9.04828 10.9048L8.92103 10.6574L9.10231 10.4582C9.31815 10.221 9.4822 10.204 9.8464 10.3809C10.0307 10.4705 10.0974 10.5351 10.0974 10.6245C10.0974 10.7586 10.0018 10.8134 9.76798 10.8134C9.66569 10.8134 9.55158 10.8772 9.42815 11.0034C9.32594 11.108 9.22729 11.1842 9.20892 11.1729C9.19055 11.1615 9.11826 11.0409 9.04828 10.9048ZM6.221 10.8134C5.96469 10.8134 5.89747 10.7679 5.92685 10.6142C5.95761 10.4532 6.29313 10.2578 6.53319 10.2611C6.62519 10.2624 6.77169 10.3353 6.89479 10.4412L7.10172 10.6193L6.96043 10.9135L6.81913 11.2077L6.60088 11.0106C6.45593 10.8796 6.32833 10.8134 6.221 10.8134ZM5.481 11.1651C5.51853 11.1499 5.59338 11.149 5.64732 11.1631C5.70126 11.1772 5.67054 11.1896 5.57907 11.1907C5.4876 11.1917 5.44346 11.1803 5.481 11.1652V11.1651ZM10.4854 10.5297V10.0243L10.8742 9.64473C11.3353 9.1945 11.4903 9.13683 12.1759 9.16062L12.6745 9.17792L12.2254 9.33383C11.8969 9.44787 11.7242 9.54466 11.5825 9.69419C11.3657 9.92293 10.6518 10.9156 10.6518 10.9883C10.6518 11.014 10.6143 11.0351 10.5686 11.0351C10.5008 11.0351 10.4854 10.942 10.4854 10.5297ZM4.96253 10.3832C4.39157 9.59533 4.26078 9.48419 3.66642 9.28177L3.36151 9.17792L3.90094 9.16208C4.55164 9.14296 4.64659 9.18255 5.17714 9.69441L5.55135 10.0554V10.5083C5.55135 10.9493 5.52588 11.0602 5.43725 11.0054C5.4135 10.9907 5.19987 10.7108 4.96253 10.3832ZM10.2082 10.5639C10.2082 10.3237 10.2316 10.1481 10.2637 10.1481C10.2957 10.1481 10.3191 10.3237 10.3191 10.5639C10.3191 10.8041 10.2957 10.9797 10.2637 10.9797C10.2316 10.9797 10.2082 10.8041 10.2082 10.5639ZM5.66223 10.5639C5.66223 10.3237 5.68565 10.1481 5.71767 10.1481C5.74969 10.1481 5.77311 10.3237 5.77311 10.5639C5.77311 10.8041 5.74969 10.9797 5.71767 10.9797C5.68565 10.9797 5.66223 10.8041 5.66223 10.5639ZM8.82226 9.81373C8.82226 9.28943 8.83907 9.14028 8.9008 9.11659C8.97522 9.08804 9.79302 9.5179 10.0003 9.69455C10.1071 9.78548 10.1424 10.3144 10.0417 10.3144C10.0111 10.3144 9.89299 10.2645 9.77921 10.2035C9.47743 10.0418 9.31791 10.0613 9.09946 10.2867C8.99602 10.3934 8.89134 10.4807 8.86683 10.4807C8.84231 10.4807 8.82226 10.1806 8.82226 9.81373ZM6.90586 10.2867C6.69036 10.0774 6.48689 10.0378 6.29826 10.1684C6.23811 10.21 6.13277 10.2616 6.06417 10.283C5.94594 10.3199 5.93943 10.307 5.93943 10.037C5.93943 9.73327 5.98172 9.66315 6.24434 9.53141C6.33582 9.48553 6.55683 9.36624 6.73549 9.26634C6.96731 9.1367 7.07739 9.10177 7.11996 9.14434C7.20361 9.22799 7.24777 10.4807 7.16707 10.4807C7.1333 10.4807 7.01575 10.3934 6.90586 10.2867ZM9.90314 9.42709C9.88419 9.39643 9.96286 9.25642 10.078 9.11595C10.2923 8.8544 10.4181 8.87652 10.2248 9.14175C10.1658 9.22263 10.1014 9.33245 10.0815 9.38581C10.0415 9.49327 9.95624 9.51301 9.90314 9.42709ZM5.89861 9.33038C5.86279 9.24653 5.79348 9.12417 5.7446 9.05847C5.69572 8.99277 5.67806 8.9252 5.70537 8.90833C5.76918 8.86889 6.11869 9.3616 6.07596 9.43074C6.02095 9.51975 5.96629 9.48882 5.89861 9.33038ZM9.52124 9.21533C9.48663 9.15934 9.94474 8.65125 10.0298 8.65125C10.1649 8.65125 10.1403 8.75993 9.95004 9.00419C9.76553 9.24101 9.59041 9.32725 9.52124 9.21533ZM6.15755 9.13634C5.93078 8.89831 5.86178 8.76217 5.93221 8.69174C5.98152 8.64243 6.05769 8.6878 6.2524 8.88253C6.49388 9.124 6.53071 9.26108 6.35411 9.26108C6.31136 9.26108 6.22291 9.20495 6.15755 9.13634ZM9.49407 8.72779C9.76638 8.45206 9.91131 8.35593 9.86636 8.48086C9.82238 8.60312 9.3073 9.09271 9.25601 9.06101C9.2246 9.04159 9.3304 8.89352 9.49407 8.72779ZM6.39147 8.78629C6.17287 8.5461 6.11045 8.42838 6.20276 8.43041C6.24769 8.4314 6.66752 8.85634 6.73588 8.97003C6.76134 9.01236 6.74724 9.03933 6.69965 9.03933C6.65681 9.03933 6.51812 8.92546 6.39147 8.78629ZM9.87561 7.86022C9.87561 7.32062 9.73286 6.74761 9.48038 6.27369C9.26241 5.86454 9.26236 5.8643 9.41646 5.96452C9.90082 6.27948 10.2613 7.00169 10.263 7.66042C10.264 8.05693 10.3653 8.09951 10.7223 7.85361C11.0613 7.6201 11.4571 7.45895 11.8281 7.40331C11.9719 7.38174 12.1192 7.32844 12.1554 7.28486C12.2511 7.16954 12.2876 6.16039 12.2076 5.84256C12.1286 5.52911 11.9018 5.01762 11.8191 4.96649C11.7869 4.94658 11.7605 4.90765 11.7605 4.87999C11.7605 4.78021 12.1603 5.06845 12.3871 5.33175C12.6747 5.66557 12.869 6.18246 12.8692 6.61386C12.8694 6.99746 12.957 7.03056 13.2419 6.7545L13.4257 6.57637L13.6049 6.75801L13.7841 6.93966L13.454 7.24919C13.0698 7.60948 12.8229 7.73073 12.2237 7.8535C11.6781 7.96528 11.082 8.25119 10.7297 8.57L10.4588 8.81522L10.1672 8.52723L9.87561 8.23925V7.86022ZM5.33852 8.62662C4.89891 8.21305 4.41402 7.97625 3.74436 7.84812C3.18679 7.74144 2.90059 7.59706 2.53056 7.2358L2.22687 6.9393L2.39994 6.76623L2.57302 6.59316L2.7535 6.76809C3.04567 7.05128 3.13347 6.98699 3.17317 6.4608C3.19322 6.19502 3.25248 5.91756 3.32134 5.76702C3.45306 5.47903 3.85972 5.0385 4.11637 4.90579L4.29141 4.81527L4.1793 4.97307C3.80743 5.49646 3.63699 6.40283 3.79005 7.04303L3.86283 7.34745L4.22978 7.41396C4.66649 7.49311 4.91916 7.59298 5.25349 7.81862C5.45511 7.95469 5.70833 8.03798 5.72016 7.97212C5.72148 7.96448 5.7365 7.78592 5.75343 7.57528C5.81449 6.81564 6.12825 6.25256 6.68675 5.90033L6.85197 5.79614L6.70695 5.99018C6.3627 6.45076 6.20262 6.95937 6.13114 7.81966C6.09239 8.28597 6.0893 8.29364 5.83553 8.55281C5.69448 8.69686 5.57062 8.81536 5.56028 8.81615C5.54996 8.81681 5.45015 8.73164 5.33852 8.62662ZM13.9039 6.77748C13.8988 6.8464 13.59 6.5105 13.59 6.436C13.59 6.31818 13.7155 6.38022 13.8865 6.58265C13.9459 6.65289 13.971 6.73297 13.9462 6.77301C13.9152 6.82323 13.8065 6.75766 13.776 6.67976C13.7529 6.6208 13.9061 6.74886 13.9039 6.77748ZM2.00325 6.72125C2.00325 6.69648 2.07607 6.60642 2.16506 6.52116C2.38446 6.31096 2.51042 6.38889 2.30234 6.60609C2.15598 6.75885 2.00325 6.81766 2.00325 6.72125ZM13.9587 6.3804C13.8176 6.23659 13.7941 6.0493 13.9274 6.1317C13.9563 6.14956 14.2386 6.46896 14.2206 6.4981C14.2056 6.53692 13.935 6.26371 13.9601 6.25587C14.0275 6.23487 14.2543 6.44585 14.2215 6.49902C14.1757 6.57312 14.1255 6.55049 13.9587 6.3804ZM1.78149 6.4995C1.78149 6.42706 2.10954 6.13342 2.14776 6.17164C2.19456 6.21844 1.93828 6.53763 1.85079 6.5415C1.81267 6.54315 1.78149 6.5243 1.78149 6.4995ZM14.1899 6.16367L14.0196 6.00453L14.1449 5.83505C14.2572 5.68311 14.2691 5.60924 14.2592 5.12118C14.2428 4.30731 14.1269 3.83212 13.7746 3.13506C13.6667 2.92162 13.5437 2.7076 13.5011 2.65946C13.4585 2.61132 13.401 2.54 13.401 2.50755C13.3738 2.47723 13.3551 2.45861 13.3179 2.41664C13.2993 2.36548 13.2806 2.34685 13.2574 2.33522C13.2574 2.30502 13.3795 2.34167 13.5288 2.41664C13.8682 2.5871 14.1456 2.5941 14.2883 2.43582C14.5594 2.13519 14.2383 0.665845 13.7961 0.183145C13.612 -0.0178172 13.7187 -0.0137994 13.986 0.190292C14.254 0.394925 14.4591 0.640633 14.6161 0.945218C14.8331 1.36621 14.8638 1.64343 14.8645 3.18614C14.865 4.49652 14.8763 4.691 14.9569 4.78001C15.1478 4.99101 15.4138 4.87211 15.6226 4.48241C15.697 4.34362 15.726 4.13184 15.7425 3.60758L15.7642 2.91587L15.8751 3.19178C16.034 3.58736 16.0431 4.38162 15.8922 4.68736C15.803 4.86819 14.4603 6.32281 14.3826 6.32281C14.3703 6.32281 14.2835 6.2512 14.1899 6.16367ZM0.942557 5.64368C0.16481 4.85943 -0.00245956 4.57804 2.79027e-05 4.05812C0.0016818 3.72909 0.150445 3.01125 0.236832 2.91608C0.263857 2.88631 0.284634 3.17029 0.284634 3.56969C0.284634 4.16499 0.301935 4.30991 0.394772 4.49186C0.575295 4.84572 0.817102 4.96291 1.03633 4.80279C1.13764 4.72879 1.14557 4.62579 1.17166 3.0426L1.19938 1.36101L1.36188 1.02837C1.45673 0.834215 1.66808 0.551489 1.86956 0.349243C2.21988 -0.00241818 2.45923 -0.132129 2.20895 0.165318C2.03664 0.37009 1.7405 1.07565 1.66932 1.45098C1.57427 1.95221 1.59867 2.3115 1.73651 2.43991C1.92201 2.61274 2.05823 2.60764 2.49206 2.41166L2.78684 2.27849L2.5954 2.54046C2.0934 3.22743 1.79698 4.08026 1.74268 4.99387C1.7146 5.46608 1.72429 5.54764 1.83388 5.76246L1.95649 6.00278L1.80318 6.1628C1.71886 6.25081 1.64226 6.32282 1.63296 6.32282C1.62367 6.32282 1.31298 6.0172 0.942557 5.64368Z" fill="#419498"/>
</svg>
