<svg width="43" height="51" viewBox="0 0 43 51" fill="none" xmlns="http://www.w3.org/2000/svg">
<mask id="path-1-outside-1_14_3" maskUnits="userSpaceOnUse" x="0" y="0" width="43" height="51" fill="black">
<rect fill="white" width="43" height="51"/>
<path d="M20.992 49.7508C21.0302 49.6161 21.0401 48.7501 21.0139 47.8263C20.9877 46.9025 20.9571 44.3762 20.946 42.2124L20.9257 38.2781L20.3812 38.115C20.0817 38.0252 19.7139 37.7959 19.564 37.6052C19.4141 37.4146 19.2263 37.2587 19.1468 37.2587C18.9099 37.2587 18.4219 36.546 18.4219 36.2C18.4219 35.9896 18.1283 35.5979 17.5703 35.0641C17.1018 34.616 16.6714 34.2319 16.6137 34.2105C16.556 34.1891 16.4309 34.5985 16.3357 35.1202C16.1754 35.9986 16.184 36.1101 16.4524 36.6234C16.6119 36.9284 16.7423 37.2538 16.7423 37.3466C16.7423 37.4394 16.7967 37.5363 16.8632 37.562C17.0067 37.6173 19.2144 41.9927 19.4861 42.7602C19.6213 43.1421 19.6782 44.1904 19.6872 46.4659C19.6951 48.4725 19.7542 49.7046 19.8478 49.8174C20.0767 50.0933 20.9086 50.0449 20.992 49.7508ZM22.6314 46.6366C22.6898 44.2519 22.7703 43.1722 22.9242 42.7106C23.041 42.3603 23.8146 40.7542 24.6434 39.1414C25.7049 37.0759 26.1471 36.073 26.1393 35.7491C26.1245 35.1301 25.8522 34.1507 25.7101 34.2053C25.6471 34.2296 25.2098 34.6082 24.7382 35.0468C24.0496 35.6872 23.8807 35.9284 23.8807 36.2715C23.8807 36.7253 23.4647 37.2587 23.1109 37.2587C22.9954 37.2587 22.9009 37.3517 22.9009 37.4654C22.9009 37.7455 22.3872 38.0565 21.7242 38.1778L21.1773 38.2779L21.2611 43.9971C21.3072 47.1426 21.386 49.7826 21.4361 49.8637C21.4862 49.9448 21.7576 49.9919 22.0391 49.9685L22.551 49.9258L22.6314 46.6366ZM19.4164 49.331C19.2936 49.1085 16.966 46.2872 15.3591 44.4131C15.0036 43.9985 14.6584 43.5662 14.592 43.4525C14.5256 43.3388 14.3524 43.1269 14.2071 42.9816C13.9482 42.7227 13.9429 42.7259 13.9429 43.1419C13.9429 44.028 14.3578 44.5915 16.8511 47.0915C19.1803 49.427 19.738 49.9139 19.4164 49.331ZM25.5677 47.0721C27.7057 44.9129 28.0794 44.4702 28.2838 43.8547C28.5419 43.0777 28.5218 42.3538 28.26 42.9974C28.1817 43.1899 28.0868 43.3158 28.0491 43.2773C28.0114 43.2388 27.7986 43.4278 27.5761 43.6972C27.3537 43.9667 27.1083 44.2571 27.0308 44.3426C26.9533 44.4282 26.701 44.7401 26.4701 45.0359C26.2391 45.3316 25.5463 46.1678 24.9304 46.8941C23.7678 48.2651 22.9009 49.3799 22.9009 49.504C22.9009 49.7248 23.3148 49.3474 25.5677 47.0721ZM19.2037 43.0973C19.0912 42.6122 18.7801 41.8277 18.5124 41.354C18.2446 40.8803 17.9803 40.3477 17.9249 40.1704C17.8696 39.9931 17.7846 39.8166 17.7361 39.7781C17.575 39.6504 16.7423 37.9579 16.7423 37.7582C16.7423 37.6503 16.677 37.5402 16.5973 37.5136C16.5175 37.4871 16.3687 37.2222 16.2665 36.925L16.0808 36.3847L15.6258 37.8365C15.3756 38.6349 14.89 39.9032 14.5467 40.6549L13.9226 42.0216L14.2457 42.5445C14.4234 42.8321 14.7095 43.1934 14.8815 43.3473C15.0535 43.5013 15.5268 44.0431 15.9332 44.5514C16.8939 45.7526 19.0038 48.341 19.1882 48.5446C19.4345 48.8166 19.4478 44.1498 19.2037 43.0973ZM24.0643 47.5034C24.9784 46.3368 25.9519 45.1401 26.59 44.3984C27.6215 43.1995 28.3582 42.1945 28.3589 41.9853C28.3593 41.8521 28.0968 41.1908 27.7755 40.5157C27.4543 39.8406 26.9942 38.6651 26.7532 37.9034L26.315 36.5185L24.7402 39.653C23.5573 42.0074 23.1327 42.9964 23.034 43.6273C22.8778 44.6253 22.8551 48.7396 23.0059 48.7281C23.0636 48.7239 23.5399 48.1726 24.0643 47.5034ZM22.3467 37.6756C22.91 37.3741 22.5985 37.2587 21.2213 37.2587C19.8741 37.2587 19.6206 37.3393 19.9966 37.6481C20.3846 37.9668 21.7722 37.983 22.3467 37.6756ZM23.4639 36.6988C23.717 36.298 23.6057 36.1554 23.0059 36.112C22.4702 36.0733 22.4065 36.0298 22.3659 35.6756C22.3411 35.4592 22.3973 35.19 22.4908 35.0773C22.7599 34.7532 22.5112 34.6611 22.0702 34.9216C21.5631 35.2211 20.6815 35.2276 20.2636 34.935C19.8776 34.6646 19.6977 34.7887 19.9319 35.1636C20.288 35.7339 19.9829 36.1901 19.2593 36.1695C18.7225 36.1543 18.6221 36.3391 18.9752 36.6923C19.2375 36.9545 19.412 36.9733 21.2951 36.9423C22.9268 36.9154 23.3577 36.8671 23.4639 36.6988ZM19.7372 35.7424C19.841 35.5744 19.3617 34.6093 19.1717 34.6039C18.9694 34.598 18.8418 34.9255 18.8418 35.4506C18.8418 35.8093 18.892 35.859 19.2535 35.859C19.4799 35.859 19.6975 35.8066 19.7372 35.7424ZM23.5403 35.5441C23.508 35.3709 23.4769 35.0874 23.4712 34.9142C23.4576 34.5027 23.1752 34.5697 22.8666 35.0576C22.4863 35.6587 22.5471 35.859 23.11 35.859C23.5412 35.859 23.592 35.8218 23.5403 35.5441ZM18.5962 34.9489C18.633 34.7563 18.4786 33.9848 18.2531 33.2343C17.9629 32.2688 17.843 31.5733 17.8429 30.8552L17.8429 29.8404H17.4405C16.9866 29.8404 16.6023 29.409 16.6023 28.8995C16.6023 28.6495 16.5238 28.5807 16.2387 28.5807H15.875L15.924 30.4352C15.9662 32.0329 16.0182 32.3815 16.2988 32.9519C16.655 33.6757 18.0775 35.2991 18.3556 35.2991C18.4511 35.2991 18.5594 35.1416 18.5962 34.9489ZM24.6843 34.7043C25.6302 33.7332 25.6743 33.6778 26.009 33.0409C26.2898 32.5065 26.3358 32.1882 26.3757 30.5052L26.4213 28.5807H26.0608C25.7579 28.5807 25.7003 28.6443 25.7003 28.9789C25.7003 29.4389 25.3627 29.7941 24.8605 29.8626C24.5281 29.908 24.5129 29.9495 24.557 30.692C24.5892 31.2354 24.4887 31.8752 24.2271 32.7915C23.7631 34.4163 23.687 34.8171 23.7907 35.0875C23.9147 35.4105 24.0551 35.3503 24.6843 34.7043ZM20.9413 32.9261V31.113L19.8968 30.0235C19.084 29.1757 18.8151 28.9713 18.6842 29.1022C18.369 29.4174 18.4773 30.0081 19.4929 33.5146C19.6863 34.1825 19.7788 34.3194 20.0366 34.3194C20.2074 34.3194 20.4256 34.4138 20.5214 34.5293C20.6173 34.6448 20.751 34.7393 20.8185 34.7393C20.8861 34.7393 20.9413 33.9234 20.9413 32.9261ZM21.9141 34.5377C22.0061 34.4269 22.2161 34.3166 22.3806 34.2928C22.637 34.2556 22.7563 33.9792 23.215 32.3598C23.8255 30.2045 23.9529 29.4399 23.7514 29.1405C23.6352 28.9678 23.4462 29.0919 22.6852 29.8404C22.1764 30.3408 21.6704 30.9203 21.5607 31.1281C21.28 31.6601 21.2743 34.7393 21.554 34.7393C21.6601 34.7393 21.8221 34.6486 21.9141 34.5377ZM19.0422 33.0946C18.8746 32.4211 18.6248 31.492 18.4872 31.0301C18.2473 30.2251 18.2322 30.2073 18.1247 30.601C17.931 31.3096 18.7377 34.3194 19.1212 34.3194C19.323 34.3194 19.3146 34.189 19.0422 33.0946ZM23.8437 33.1296C24.233 31.8872 24.4195 30.2603 24.1726 30.2603C24.089 30.2603 24.0206 30.3423 24.0206 30.4426C24.0206 30.5429 23.8002 31.4056 23.5308 32.3598C22.9666 34.3578 22.967 34.3547 23.2668 34.2946C23.4132 34.2653 23.6163 33.855 23.8437 33.1296ZM23.1868 27.9326C22.9442 27.4834 22.8977 27.1689 22.9145 26.0899C22.9257 25.3743 22.9097 24.7637 22.8791 24.733C22.8484 24.7024 22.0692 24.6659 21.1475 24.652L19.4717 24.6268L19.4017 26.2471C19.3575 27.2705 19.2673 27.9318 19.1567 28.0421C19.0605 28.1382 18.9818 28.2892 18.9818 28.3777C18.9818 28.4661 19.4699 29.0448 20.0665 29.6636L21.1513 30.7886L22.3153 29.6314L23.4793 28.4742L23.1868 27.9326ZM14.0586 29.2798C14.2569 29.1145 14.3434 28.9385 14.2799 28.8295C13.9919 28.3353 12.1711 25.968 11.96 25.8132C11.8265 25.7152 11.6341 25.552 11.5325 25.4504C11.4309 25.3488 11.214 25.1941 11.0506 25.1066C10.6586 24.8968 8.58051 24.2386 8.51548 24.3037C8.45611 24.363 8.46791 24.3851 9.68121 26.4811C10.1937 27.3664 10.7796 28.2696 10.9832 28.4882C11.8536 29.4223 13.4076 29.8223 14.0586 29.2798ZM17.8519 29.4555C17.8463 29.3978 17.6259 29.1711 17.362 28.9518C16.9809 28.6351 16.8823 28.601 16.8823 28.786C16.8823 29.2155 17.165 29.5604 17.517 29.5604C17.7068 29.5604 17.8575 29.5132 17.8519 29.4555ZM25.2524 29.3925C25.4418 29.2031 25.4807 28.7207 25.3065 28.7207C25.244 28.7207 25.0117 28.9096 24.7905 29.1406L24.3882 29.5605H24.7363C24.9277 29.5605 25.16 29.4849 25.2524 29.3925ZM30.0917 29.3173C30.8118 29.0591 31.6572 28.3211 31.9999 27.6513C32.1126 27.4311 32.3078 27.0935 32.4338 26.9011C32.8392 26.2818 33.4532 25.1518 33.3899 25.1414C33.3562 25.1356 33.4388 25.0212 33.5735 24.8865C33.7082 24.7518 33.8184 24.5577 33.8184 24.4553C33.8184 24.2518 33.49 24.328 31.7889 24.926C30.7372 25.2957 30.0662 25.9693 28.5352 28.1924C27.9952 28.9766 27.9849 29.0583 28.3908 29.3426C28.7948 29.6255 29.2506 29.6187 30.0917 29.3173ZM15.3093 29.1843C15.1754 29.1493 14.9235 29.148 14.7494 29.1818C14.5753 29.2153 14.6848 29.244 14.9927 29.2456C15.3006 29.2472 15.4431 29.2194 15.3093 29.1843ZM18.5511 28.5316L18.8724 27.907L18.4147 27.404C17.8698 26.8052 17.4556 26.7621 16.5361 27.2089C16.0707 27.435 15.9025 27.5982 15.9025 27.8238C15.9025 28.1623 16.1438 28.3007 16.7341 28.3007C16.9923 28.3007 17.2804 28.4619 17.5921 28.7806C17.8501 29.0445 18.0992 29.237 18.1456 29.2083C18.1919 29.1797 18.3744 28.8751 18.5511 28.5316ZM25.6892 28.3007C26.3363 28.3007 26.506 28.1858 26.4319 27.7978C26.3542 27.3914 25.5071 26.8981 24.901 26.9063C24.6687 26.9096 24.2989 27.0937 23.9881 27.3612L23.4656 27.8108L23.8224 28.5536L24.1791 29.2964L24.7301 28.7986C25.0961 28.468 25.4182 28.3007 25.6892 28.3007ZM27.5575 29.1887C27.4627 29.1504 27.2738 29.148 27.1376 29.1837C27.0014 29.2192 27.079 29.2506 27.3099 29.2534C27.5408 29.2559 27.6523 29.227 27.5575 29.1887ZM14.9227 27.5846V26.3086L13.9413 25.3502C12.7772 24.2135 12.3857 24.0679 10.6547 24.128L9.39601 24.1717L10.5298 24.5653C11.3591 24.8532 11.7951 25.0976 12.1529 25.4751C12.7003 26.0526 14.5028 28.5588 14.5028 28.7424C14.5028 28.8074 14.5973 28.8606 14.7128 28.8606C14.884 28.8606 14.9227 28.6255 14.9227 27.5846ZM28.8665 27.2148C30.308 25.2255 30.6382 24.9449 32.1388 24.4338L32.9086 24.1717L31.5467 24.1317C29.9039 24.0834 29.6642 24.1834 28.3247 25.4756L27.3799 26.3871V27.5306C27.3799 28.6438 27.4442 28.9239 27.668 28.7856C27.7279 28.7485 28.2673 28.0416 28.8665 27.2148ZM15.6226 27.6709C15.6226 27.0643 15.5635 26.6211 15.4826 26.6211C15.4017 26.6211 15.3426 27.0643 15.3426 27.6709C15.3426 28.2774 15.4017 28.7206 15.4826 28.7206C15.5635 28.7206 15.6226 28.2774 15.6226 27.6709ZM27.0999 27.6709C27.0999 27.0643 27.0408 26.6211 26.96 26.6211C26.8791 26.6211 26.82 27.0643 26.82 27.6709C26.82 28.2774 26.8791 28.7206 26.96 28.7206C27.0408 28.7206 27.0999 28.2774 27.0999 27.6709ZM19.1218 25.7769C19.1218 24.4532 19.0793 24.0766 18.9235 24.0168C18.7356 23.9447 16.6709 25.03 16.1474 25.476C15.878 25.7056 15.7889 27.041 16.043 27.041C16.1202 27.041 16.4185 26.915 16.7057 26.7611C17.4676 26.3527 17.8704 26.402 18.4219 26.971C18.6831 27.2405 18.9474 27.4609 19.0092 27.4609C19.0711 27.4609 19.1218 26.7031 19.1218 25.7769ZM23.9601 26.971C24.5042 26.4426 25.0179 26.3426 25.4942 26.6722C25.646 26.7773 25.912 26.9076 26.0852 26.9616C26.3837 27.0547 26.4001 27.0223 26.4001 26.3406C26.4001 25.5738 26.2933 25.3967 25.6303 25.0641C25.3993 24.9483 24.8413 24.6471 24.3903 24.3949C23.805 24.0676 23.5271 23.9794 23.4196 24.0869C23.2084 24.2981 23.0969 27.4609 23.3006 27.4609C23.3859 27.4609 23.6827 27.2405 23.9601 26.971ZM16.3929 24.8008C16.4407 24.7233 16.2421 24.3698 15.9515 24.0152C15.4104 23.3549 15.0927 23.4107 15.5808 24.0803C15.7296 24.2845 15.8924 24.5618 15.9425 24.6965C16.0435 24.9678 16.2588 25.0177 16.3929 24.8008ZM26.5032 24.5566C26.5936 24.3449 26.7686 24.036 26.892 23.8701C27.0154 23.7042 27.06 23.5336 26.991 23.491C26.8299 23.3915 25.9475 24.6354 26.0554 24.8099C26.1943 25.0347 26.3323 24.9566 26.5032 24.5566ZM17.357 24.2661C17.4444 24.1247 16.2878 22.842 16.073 22.842C15.732 22.842 15.794 23.1164 16.2744 23.733C16.7403 24.331 17.1824 24.5487 17.357 24.2661ZM25.8494 24.0667C26.4219 23.4657 26.5961 23.122 26.4183 22.9442C26.2938 22.8197 26.1015 22.9342 25.6099 23.4259C25.0003 24.0355 24.9073 24.3816 25.3532 24.3816C25.4611 24.3816 25.6844 24.2399 25.8494 24.0667ZM17.4256 23.0352C16.7381 22.3391 16.3722 22.0964 16.4857 22.4118C16.5967 22.7204 17.8972 23.9565 18.0267 23.8765C18.106 23.8275 17.8389 23.4536 17.4256 23.0352ZM25.2588 23.1829C25.8107 22.5765 25.9683 22.2793 25.7353 22.2844C25.6218 22.2869 24.5619 23.3598 24.3893 23.6468C24.325 23.7537 24.3606 23.8218 24.4807 23.8218C24.5889 23.8218 24.9391 23.5343 25.2588 23.1829ZM16.4624 20.8449C16.4624 19.4825 16.8227 18.0358 17.4602 16.8393C18.0105 15.8063 18.0106 15.8057 17.6216 16.0587C16.3987 16.8539 15.4885 18.6773 15.4842 20.3404C15.4817 21.3415 15.2261 21.449 14.3247 20.8282C13.4687 20.2386 12.4696 19.8317 11.5328 19.6913C11.1697 19.6368 10.7979 19.5022 10.7066 19.3922C10.465 19.1011 10.3728 16.5533 10.5748 15.7508C10.7741 14.9594 11.3467 13.6681 11.5556 13.539C11.6369 13.4887 11.7034 13.3904 11.7034 13.3206C11.7034 13.0687 10.6941 13.7964 10.1215 14.4612C9.39551 15.304 8.90484 16.609 8.90441 17.6981C8.90399 18.6666 8.68259 18.7502 7.96351 18.0532L7.49949 17.6035L7.04705 18.0621L6.59461 18.5207L7.42798 19.3022C8.39804 20.2118 9.02127 20.5179 10.534 20.8279C11.9116 21.1101 13.4167 21.8319 14.3059 22.6368L14.9899 23.2559L15.7261 22.5289L16.4624 21.8018V20.8449ZM27.9172 22.7798C29.0271 21.7356 30.2513 21.1378 31.942 20.8143C33.3497 20.545 34.0723 20.1804 35.0065 19.2684L35.7733 18.5198L35.3363 18.0828L34.8993 17.6459L34.4437 18.0875C33.706 18.8025 33.4844 18.6402 33.3841 17.3117C33.3335 16.6407 33.1839 15.9402 33.01 15.5601C32.6775 14.833 31.6508 13.7208 31.0028 13.3857L30.5609 13.1572L30.8439 13.5556C31.7828 14.877 32.2131 17.1653 31.8267 18.7817L31.6429 19.5502L30.7165 19.7182C29.6139 19.918 28.976 20.1701 28.1319 20.7398C27.6229 21.0834 26.9836 21.2936 26.9537 21.1274C26.9503 21.1081 26.9124 20.6573 26.8697 20.1255C26.7155 18.2076 25.9234 16.7859 24.5133 15.8967L24.0962 15.6336L24.4623 16.1235C25.3315 17.2864 25.7356 18.5704 25.9161 20.7424C26.0139 21.9197 26.0217 21.9391 26.6624 22.5934C27.0185 22.9571 27.3312 23.2563 27.3573 23.2583C27.3834 23.26 27.6354 23.0449 27.9172 22.7798ZM6.29196 18.1112C6.30499 18.2852 7.0845 17.4372 7.0845 17.2491C7.0845 16.9516 6.76782 17.1082 6.33596 17.6193C6.1861 17.7967 6.12267 17.9988 6.18514 18.0999C6.26351 18.2267 6.53791 18.0612 6.61493 17.8645C6.67322 17.7157 6.28655 18.039 6.29196 18.1112ZM36.3378 17.9693C36.3378 17.9067 36.154 17.6794 35.9293 17.4641C35.3754 16.9334 35.0574 17.1301 35.5827 17.6785C35.9522 18.0642 36.3378 18.2127 36.3378 17.9693ZM6.15373 17.1087C6.50987 16.7456 6.56937 16.2728 6.23274 16.4808C6.15982 16.5259 5.44706 17.3323 5.49253 17.4059C5.53046 17.5039 6.21358 16.8141 6.15012 16.7943C5.9799 16.7413 5.40734 17.2739 5.4903 17.4082C5.60593 17.5953 5.73252 17.5381 6.15373 17.1087ZM36.8977 17.4094C36.8977 17.2265 36.0695 16.4852 35.973 16.5817C35.8548 16.6998 36.5019 17.5057 36.7228 17.5154C36.819 17.5196 36.8977 17.472 36.8977 17.4094ZM5.57003 16.5615L5.99994 16.1597L5.68359 15.7319C5.39998 15.3483 5.37011 15.1618 5.39496 13.9295C5.43641 11.8747 5.72915 10.675 6.6185 8.91514C6.89083 8.37626 7.20156 7.83593 7.30902 7.71439C7.41648 7.59285 7.56164 7.41279 7.56164 7.33086C7.63052 7.25432 7.67754 7.20729 7.77159 7.10133C7.81862 6.97217 7.86564 6.92514 7.92431 6.89577C7.92431 6.81953 7.61598 6.91206 7.23913 7.10133C6.3823 7.5317 5.68193 7.54938 5.3216 7.14977C4.63721 6.39075 5.44779 2.68107 6.5643 1.46239C7.02914 0.955016 6.75957 0.96516 6.08475 1.48043C5.40812 1.99707 4.89039 2.61742 4.49403 3.38641C3.94619 4.4493 3.86861 5.14919 3.8669 9.0441C3.86548 12.3524 3.83697 12.8435 3.63359 13.0682C3.15149 13.6009 2.47997 13.3007 1.95276 12.3168C1.765 11.9664 1.69173 11.4317 1.65012 10.1081L1.59521 8.36175L1.31542 9.05836C0.914279 10.0571 0.891281 12.0624 1.27212 12.8343C1.49736 13.2908 4.88724 16.9633 5.0834 16.9633C5.1146 16.9633 5.33359 16.7825 5.57003 16.5615ZM39.0158 15.2487C40.9794 13.2687 41.4017 12.5583 41.3954 11.2456C41.3912 10.4149 41.0156 8.60256 40.7975 8.36227C40.7293 8.28711 40.6769 9.00409 40.6769 10.0125C40.6769 11.5154 40.6332 11.8813 40.3988 12.3407C39.943 13.2341 39.3325 13.5299 38.779 13.1257C38.5232 12.9389 38.5032 12.6788 38.4374 8.6817L38.3674 4.43616L37.9571 3.59635C37.7176 3.10616 37.184 2.39235 36.6754 1.88174C35.7909 0.993895 35.1866 0.666411 35.8185 1.41738C36.2535 1.93437 37.0012 3.71571 37.1809 4.66333C37.4209 5.92878 37.3593 6.83589 37.0113 7.16008C36.5429 7.59643 36.199 7.58356 35.1037 7.08876L34.3595 6.75255L34.8428 7.41395C36.1102 9.14834 36.8586 11.3015 36.9957 13.6081C37.0666 14.8003 37.0421 15.0062 36.7654 15.5486L36.4559 16.1553L36.843 16.5593C37.0558 16.7815 37.2492 16.9633 37.2727 16.9633C37.2962 16.9633 38.0806 16.1917 39.0158 15.2487Z"/>
</mask>
<path d="M20.992 49.7508C21.0302 49.6161 21.0401 48.7501 21.0139 47.8263C20.9877 46.9025 20.9571 44.3762 20.946 42.2124L20.9257 38.2781L20.3812 38.115C20.0817 38.0252 19.7139 37.7959 19.564 37.6052C19.4141 37.4146 19.2263 37.2587 19.1468 37.2587C18.9099 37.2587 18.4219 36.546 18.4219 36.2C18.4219 35.9896 18.1283 35.5979 17.5703 35.0641C17.1018 34.616 16.6714 34.2319 16.6137 34.2105C16.556 34.1891 16.4309 34.5985 16.3357 35.1202C16.1754 35.9986 16.184 36.1101 16.4524 36.6234C16.6119 36.9284 16.7423 37.2538 16.7423 37.3466C16.7423 37.4394 16.7967 37.5363 16.8632 37.562C17.0067 37.6173 19.2144 41.9927 19.4861 42.7602C19.6213 43.1421 19.6782 44.1904 19.6872 46.4659C19.6951 48.4725 19.7542 49.7046 19.8478 49.8174C20.0767 50.0933 20.9086 50.0449 20.992 49.7508ZM22.6314 46.6366C22.6898 44.2519 22.7703 43.1722 22.9242 42.7106C23.041 42.3603 23.8146 40.7542 24.6434 39.1414C25.7049 37.0759 26.1471 36.073 26.1393 35.7491C26.1245 35.1301 25.8522 34.1507 25.7101 34.2053C25.6471 34.2296 25.2098 34.6082 24.7382 35.0468C24.0496 35.6872 23.8807 35.9284 23.8807 36.2715C23.8807 36.7253 23.4647 37.2587 23.1109 37.2587C22.9954 37.2587 22.9009 37.3517 22.9009 37.4654C22.9009 37.7455 22.3872 38.0565 21.7242 38.1778L21.1773 38.2779L21.2611 43.9971C21.3072 47.1426 21.386 49.7826 21.4361 49.8637C21.4862 49.9448 21.7576 49.9919 22.0391 49.9685L22.551 49.9258L22.6314 46.6366ZM19.4164 49.331C19.2936 49.1085 16.966 46.2872 15.3591 44.4131C15.0036 43.9985 14.6584 43.5662 14.592 43.4525C14.5256 43.3388 14.3524 43.1269 14.2071 42.9816C13.9482 42.7227 13.9429 42.7259 13.9429 43.1419C13.9429 44.028 14.3578 44.5915 16.8511 47.0915C19.1803 49.427 19.738 49.9139 19.4164 49.331ZM25.5677 47.0721C27.7057 44.9129 28.0794 44.4702 28.2838 43.8547C28.5419 43.0777 28.5218 42.3538 28.26 42.9974C28.1817 43.1899 28.0868 43.3158 28.0491 43.2773C28.0114 43.2388 27.7986 43.4278 27.5761 43.6972C27.3537 43.9667 27.1083 44.2571 27.0308 44.3426C26.9533 44.4282 26.701 44.7401 26.4701 45.0359C26.2391 45.3316 25.5463 46.1678 24.9304 46.8941C23.7678 48.2651 22.9009 49.3799 22.9009 49.504C22.9009 49.7248 23.3148 49.3474 25.5677 47.0721ZM19.2037 43.0973C19.0912 42.6122 18.7801 41.8277 18.5124 41.354C18.2446 40.8803 17.9803 40.3477 17.9249 40.1704C17.8696 39.9931 17.7846 39.8166 17.7361 39.7781C17.575 39.6504 16.7423 37.9579 16.7423 37.7582C16.7423 37.6503 16.677 37.5402 16.5973 37.5136C16.5175 37.4871 16.3687 37.2222 16.2665 36.925L16.0808 36.3847L15.6258 37.8365C15.3756 38.6349 14.89 39.9032 14.5467 40.6549L13.9226 42.0216L14.2457 42.5445C14.4234 42.8321 14.7095 43.1934 14.8815 43.3473C15.0535 43.5013 15.5268 44.0431 15.9332 44.5514C16.8939 45.7526 19.0038 48.341 19.1882 48.5446C19.4345 48.8166 19.4478 44.1498 19.2037 43.0973ZM24.0643 47.5034C24.9784 46.3368 25.9519 45.1401 26.59 44.3984C27.6215 43.1995 28.3582 42.1945 28.3589 41.9853C28.3593 41.8521 28.0968 41.1908 27.7755 40.5157C27.4543 39.8406 26.9942 38.6651 26.7532 37.9034L26.315 36.5185L24.7402 39.653C23.5573 42.0074 23.1327 42.9964 23.034 43.6273C22.8778 44.6253 22.8551 48.7396 23.0059 48.7281C23.0636 48.7239 23.5399 48.1726 24.0643 47.5034ZM22.3467 37.6756C22.91 37.3741 22.5985 37.2587 21.2213 37.2587C19.8741 37.2587 19.6206 37.3393 19.9966 37.6481C20.3846 37.9668 21.7722 37.983 22.3467 37.6756ZM23.4639 36.6988C23.717 36.298 23.6057 36.1554 23.0059 36.112C22.4702 36.0733 22.4065 36.0298 22.3659 35.6756C22.3411 35.4592 22.3973 35.19 22.4908 35.0773C22.7599 34.7532 22.5112 34.6611 22.0702 34.9216C21.5631 35.2211 20.6815 35.2276 20.2636 34.935C19.8776 34.6646 19.6977 34.7887 19.9319 35.1636C20.288 35.7339 19.9829 36.1901 19.2593 36.1695C18.7225 36.1543 18.6221 36.3391 18.9752 36.6923C19.2375 36.9545 19.412 36.9733 21.2951 36.9423C22.9268 36.9154 23.3577 36.8671 23.4639 36.6988ZM19.7372 35.7424C19.841 35.5744 19.3617 34.6093 19.1717 34.6039C18.9694 34.598 18.8418 34.9255 18.8418 35.4506C18.8418 35.8093 18.892 35.859 19.2535 35.859C19.4799 35.859 19.6975 35.8066 19.7372 35.7424ZM23.5403 35.5441C23.508 35.3709 23.4769 35.0874 23.4712 34.9142C23.4576 34.5027 23.1752 34.5697 22.8666 35.0576C22.4863 35.6587 22.5471 35.859 23.11 35.859C23.5412 35.859 23.592 35.8218 23.5403 35.5441ZM18.5962 34.9489C18.633 34.7563 18.4786 33.9848 18.2531 33.2343C17.9629 32.2688 17.843 31.5733 17.8429 30.8552L17.8429 29.8404H17.4405C16.9866 29.8404 16.6023 29.409 16.6023 28.8995C16.6023 28.6495 16.5238 28.5807 16.2387 28.5807H15.875L15.924 30.4352C15.9662 32.0329 16.0182 32.3815 16.2988 32.9519C16.655 33.6757 18.0775 35.2991 18.3556 35.2991C18.4511 35.2991 18.5594 35.1416 18.5962 34.9489ZM24.6843 34.7043C25.6302 33.7332 25.6743 33.6778 26.009 33.0409C26.2898 32.5065 26.3358 32.1882 26.3757 30.5052L26.4213 28.5807H26.0608C25.7579 28.5807 25.7003 28.6443 25.7003 28.9789C25.7003 29.4389 25.3627 29.7941 24.8605 29.8626C24.5281 29.908 24.5129 29.9495 24.557 30.692C24.5892 31.2354 24.4887 31.8752 24.2271 32.7915C23.7631 34.4163 23.687 34.8171 23.7907 35.0875C23.9147 35.4105 24.0551 35.3503 24.6843 34.7043ZM20.9413 32.9261V31.113L19.8968 30.0235C19.084 29.1757 18.8151 28.9713 18.6842 29.1022C18.369 29.4174 18.4773 30.0081 19.4929 33.5146C19.6863 34.1825 19.7788 34.3194 20.0366 34.3194C20.2074 34.3194 20.4256 34.4138 20.5214 34.5293C20.6173 34.6448 20.751 34.7393 20.8185 34.7393C20.8861 34.7393 20.9413 33.9234 20.9413 32.9261ZM21.9141 34.5377C22.0061 34.4269 22.2161 34.3166 22.3806 34.2928C22.637 34.2556 22.7563 33.9792 23.215 32.3598C23.8255 30.2045 23.9529 29.4399 23.7514 29.1405C23.6352 28.9678 23.4462 29.0919 22.6852 29.8404C22.1764 30.3408 21.6704 30.9203 21.5607 31.1281C21.28 31.6601 21.2743 34.7393 21.554 34.7393C21.6601 34.7393 21.8221 34.6486 21.9141 34.5377ZM19.0422 33.0946C18.8746 32.4211 18.6248 31.492 18.4872 31.0301C18.2473 30.2251 18.2322 30.2073 18.1247 30.601C17.931 31.3096 18.7377 34.3194 19.1212 34.3194C19.323 34.3194 19.3146 34.189 19.0422 33.0946ZM23.8437 33.1296C24.233 31.8872 24.4195 30.2603 24.1726 30.2603C24.089 30.2603 24.0206 30.3423 24.0206 30.4426C24.0206 30.5429 23.8002 31.4056 23.5308 32.3598C22.9666 34.3578 22.967 34.3547 23.2668 34.2946C23.4132 34.2653 23.6163 33.855 23.8437 33.1296ZM23.1868 27.9326C22.9442 27.4834 22.8977 27.1689 22.9145 26.0899C22.9257 25.3743 22.9097 24.7637 22.8791 24.733C22.8484 24.7024 22.0692 24.6659 21.1475 24.652L19.4717 24.6268L19.4017 26.2471C19.3575 27.2705 19.2673 27.9318 19.1567 28.0421C19.0605 28.1382 18.9818 28.2892 18.9818 28.3777C18.9818 28.4661 19.4699 29.0448 20.0665 29.6636L21.1513 30.7886L22.3153 29.6314L23.4793 28.4742L23.1868 27.9326ZM14.0586 29.2798C14.2569 29.1145 14.3434 28.9385 14.2799 28.8295C13.9919 28.3353 12.1711 25.968 11.96 25.8132C11.8265 25.7152 11.6341 25.552 11.5325 25.4504C11.4309 25.3488 11.214 25.1941 11.0506 25.1066C10.6586 24.8968 8.58051 24.2386 8.51548 24.3037C8.45611 24.363 8.46791 24.3851 9.68121 26.4811C10.1937 27.3664 10.7796 28.2696 10.9832 28.4882C11.8536 29.4223 13.4076 29.8223 14.0586 29.2798ZM17.8519 29.4555C17.8463 29.3978 17.6259 29.1711 17.362 28.9518C16.9809 28.6351 16.8823 28.601 16.8823 28.786C16.8823 29.2155 17.165 29.5604 17.517 29.5604C17.7068 29.5604 17.8575 29.5132 17.8519 29.4555ZM25.2524 29.3925C25.4418 29.2031 25.4807 28.7207 25.3065 28.7207C25.244 28.7207 25.0117 28.9096 24.7905 29.1406L24.3882 29.5605H24.7363C24.9277 29.5605 25.16 29.4849 25.2524 29.3925ZM30.0917 29.3173C30.8118 29.0591 31.6572 28.3211 31.9999 27.6513C32.1126 27.4311 32.3078 27.0935 32.4338 26.9011C32.8392 26.2818 33.4532 25.1518 33.3899 25.1414C33.3562 25.1356 33.4388 25.0212 33.5735 24.8865C33.7082 24.7518 33.8184 24.5577 33.8184 24.4553C33.8184 24.2518 33.49 24.328 31.7889 24.926C30.7372 25.2957 30.0662 25.9693 28.5352 28.1924C27.9952 28.9766 27.9849 29.0583 28.3908 29.3426C28.7948 29.6255 29.2506 29.6187 30.0917 29.3173ZM15.3093 29.1843C15.1754 29.1493 14.9235 29.148 14.7494 29.1818C14.5753 29.2153 14.6848 29.244 14.9927 29.2456C15.3006 29.2472 15.4431 29.2194 15.3093 29.1843ZM18.5511 28.5316L18.8724 27.907L18.4147 27.404C17.8698 26.8052 17.4556 26.7621 16.5361 27.2089C16.0707 27.435 15.9025 27.5982 15.9025 27.8238C15.9025 28.1623 16.1438 28.3007 16.7341 28.3007C16.9923 28.3007 17.2804 28.4619 17.5921 28.7806C17.8501 29.0445 18.0992 29.237 18.1456 29.2083C18.1919 29.1797 18.3744 28.8751 18.5511 28.5316ZM25.6892 28.3007C26.3363 28.3007 26.506 28.1858 26.4319 27.7978C26.3542 27.3914 25.5071 26.8981 24.901 26.9063C24.6687 26.9096 24.2989 27.0937 23.9881 27.3612L23.4656 27.8108L23.8224 28.5536L24.1791 29.2964L24.7301 28.7986C25.0961 28.468 25.4182 28.3007 25.6892 28.3007ZM27.5575 29.1887C27.4627 29.1504 27.2738 29.148 27.1376 29.1837C27.0014 29.2192 27.079 29.2506 27.3099 29.2534C27.5408 29.2559 27.6523 29.227 27.5575 29.1887ZM14.9227 27.5846V26.3086L13.9413 25.3502C12.7772 24.2135 12.3857 24.0679 10.6547 24.128L9.39601 24.1717L10.5298 24.5653C11.3591 24.8532 11.7951 25.0976 12.1529 25.4751C12.7003 26.0526 14.5028 28.5588 14.5028 28.7424C14.5028 28.8074 14.5973 28.8606 14.7128 28.8606C14.884 28.8606 14.9227 28.6255 14.9227 27.5846ZM28.8665 27.2148C30.308 25.2255 30.6382 24.9449 32.1388 24.4338L32.9086 24.1717L31.5467 24.1317C29.9039 24.0834 29.6642 24.1834 28.3247 25.4756L27.3799 26.3871V27.5306C27.3799 28.6438 27.4442 28.9239 27.668 28.7856C27.7279 28.7485 28.2673 28.0416 28.8665 27.2148ZM15.6226 27.6709C15.6226 27.0643 15.5635 26.6211 15.4826 26.6211C15.4017 26.6211 15.3426 27.0643 15.3426 27.6709C15.3426 28.2774 15.4017 28.7206 15.4826 28.7206C15.5635 28.7206 15.6226 28.2774 15.6226 27.6709ZM27.0999 27.6709C27.0999 27.0643 27.0408 26.6211 26.96 26.6211C26.8791 26.6211 26.82 27.0643 26.82 27.6709C26.82 28.2774 26.8791 28.7206 26.96 28.7206C27.0408 28.7206 27.0999 28.2774 27.0999 27.6709ZM19.1218 25.7769C19.1218 24.4532 19.0793 24.0766 18.9235 24.0168C18.7356 23.9447 16.6709 25.03 16.1474 25.476C15.878 25.7056 15.7889 27.041 16.043 27.041C16.1202 27.041 16.4185 26.915 16.7057 26.7611C17.4676 26.3527 17.8704 26.402 18.4219 26.971C18.6831 27.2405 18.9474 27.4609 19.0092 27.4609C19.0711 27.4609 19.1218 26.7031 19.1218 25.7769ZM23.9601 26.971C24.5042 26.4426 25.0179 26.3426 25.4942 26.6722C25.646 26.7773 25.912 26.9076 26.0852 26.9616C26.3837 27.0547 26.4001 27.0223 26.4001 26.3406C26.4001 25.5738 26.2933 25.3967 25.6303 25.0641C25.3993 24.9483 24.8413 24.6471 24.3903 24.3949C23.805 24.0676 23.5271 23.9794 23.4196 24.0869C23.2084 24.2981 23.0969 27.4609 23.3006 27.4609C23.3859 27.4609 23.6827 27.2405 23.9601 26.971ZM16.3929 24.8008C16.4407 24.7233 16.2421 24.3698 15.9515 24.0152C15.4104 23.3549 15.0927 23.4107 15.5808 24.0803C15.7296 24.2845 15.8924 24.5618 15.9425 24.6965C16.0435 24.9678 16.2588 25.0177 16.3929 24.8008ZM26.5032 24.5566C26.5936 24.3449 26.7686 24.036 26.892 23.8701C27.0154 23.7042 27.06 23.5336 26.991 23.491C26.8299 23.3915 25.9475 24.6354 26.0554 24.8099C26.1943 25.0347 26.3323 24.9566 26.5032 24.5566ZM17.357 24.2661C17.4444 24.1247 16.2878 22.842 16.073 22.842C15.732 22.842 15.794 23.1164 16.2744 23.733C16.7403 24.331 17.1824 24.5487 17.357 24.2661ZM25.8494 24.0667C26.4219 23.4657 26.5961 23.122 26.4183 22.9442C26.2938 22.8197 26.1015 22.9342 25.6099 23.4259C25.0003 24.0355 24.9073 24.3816 25.3532 24.3816C25.4611 24.3816 25.6844 24.2399 25.8494 24.0667ZM17.4256 23.0352C16.7381 22.3391 16.3722 22.0964 16.4857 22.4118C16.5967 22.7204 17.8972 23.9565 18.0267 23.8765C18.106 23.8275 17.8389 23.4536 17.4256 23.0352ZM25.2588 23.1829C25.8107 22.5765 25.9683 22.2793 25.7353 22.2844C25.6218 22.2869 24.5619 23.3598 24.3893 23.6468C24.325 23.7537 24.3606 23.8218 24.4807 23.8218C24.5889 23.8218 24.9391 23.5343 25.2588 23.1829ZM16.4624 20.8449C16.4624 19.4825 16.8227 18.0358 17.4602 16.8393C18.0105 15.8063 18.0106 15.8057 17.6216 16.0587C16.3987 16.8539 15.4885 18.6773 15.4842 20.3404C15.4817 21.3415 15.2261 21.449 14.3247 20.8282C13.4687 20.2386 12.4696 19.8317 11.5328 19.6913C11.1697 19.6368 10.7979 19.5022 10.7066 19.3922C10.465 19.1011 10.3728 16.5533 10.5748 15.7508C10.7741 14.9594 11.3467 13.6681 11.5556 13.539C11.6369 13.4887 11.7034 13.3904 11.7034 13.3206C11.7034 13.0687 10.6941 13.7964 10.1215 14.4612C9.39551 15.304 8.90484 16.609 8.90441 17.6981C8.90399 18.6666 8.68259 18.7502 7.96351 18.0532L7.49949 17.6035L7.04705 18.0621L6.59461 18.5207L7.42798 19.3022C8.39804 20.2118 9.02127 20.5179 10.534 20.8279C11.9116 21.1101 13.4167 21.8319 14.3059 22.6368L14.9899 23.2559L15.7261 22.5289L16.4624 21.8018V20.8449ZM27.9172 22.7798C29.0271 21.7356 30.2513 21.1378 31.942 20.8143C33.3497 20.545 34.0723 20.1804 35.0065 19.2684L35.7733 18.5198L35.3363 18.0828L34.8993 17.6459L34.4437 18.0875C33.706 18.8025 33.4844 18.6402 33.3841 17.3117C33.3335 16.6407 33.1839 15.9402 33.01 15.5601C32.6775 14.833 31.6508 13.7208 31.0028 13.3857L30.5609 13.1572L30.8439 13.5556C31.7828 14.877 32.2131 17.1653 31.8267 18.7817L31.6429 19.5502L30.7165 19.7182C29.6139 19.918 28.976 20.1701 28.1319 20.7398C27.6229 21.0834 26.9836 21.2936 26.9537 21.1274C26.9503 21.1081 26.9124 20.6573 26.8697 20.1255C26.7155 18.2076 25.9234 16.7859 24.5133 15.8967L24.0962 15.6336L24.4623 16.1235C25.3315 17.2864 25.7356 18.5704 25.9161 20.7424C26.0139 21.9197 26.0217 21.9391 26.6624 22.5934C27.0185 22.9571 27.3312 23.2563 27.3573 23.2583C27.3834 23.26 27.6354 23.0449 27.9172 22.7798ZM6.29196 18.1112C6.30499 18.2852 7.0845 17.4372 7.0845 17.2491C7.0845 16.9516 6.76782 17.1082 6.33596 17.6193C6.1861 17.7967 6.12267 17.9988 6.18514 18.0999C6.26351 18.2267 6.53791 18.0612 6.61493 17.8645C6.67322 17.7157 6.28655 18.039 6.29196 18.1112ZM36.3378 17.9693C36.3378 17.9067 36.154 17.6794 35.9293 17.4641C35.3754 16.9334 35.0574 17.1301 35.5827 17.6785C35.9522 18.0642 36.3378 18.2127 36.3378 17.9693ZM6.15373 17.1087C6.50987 16.7456 6.56937 16.2728 6.23274 16.4808C6.15982 16.5259 5.44706 17.3323 5.49253 17.4059C5.53046 17.5039 6.21358 16.8141 6.15012 16.7943C5.9799 16.7413 5.40734 17.2739 5.4903 17.4082C5.60593 17.5953 5.73252 17.5381 6.15373 17.1087ZM36.8977 17.4094C36.8977 17.2265 36.0695 16.4852 35.973 16.5817C35.8548 16.6998 36.5019 17.5057 36.7228 17.5154C36.819 17.5196 36.8977 17.472 36.8977 17.4094ZM5.57003 16.5615L5.99994 16.1597L5.68359 15.7319C5.39998 15.3483 5.37011 15.1618 5.39496 13.9295C5.43641 11.8747 5.72915 10.675 6.6185 8.91514C6.89083 8.37626 7.20156 7.83593 7.30902 7.71439C7.41648 7.59285 7.56164 7.41279 7.56164 7.33086C7.63052 7.25432 7.67754 7.20729 7.77159 7.10133C7.81862 6.97217 7.86564 6.92514 7.92431 6.89577C7.92431 6.81953 7.61598 6.91206 7.23913 7.10133C6.3823 7.5317 5.68193 7.54938 5.3216 7.14977C4.63721 6.39075 5.44779 2.68107 6.5643 1.46239C7.02914 0.955016 6.75957 0.96516 6.08475 1.48043C5.40812 1.99707 4.89039 2.61742 4.49403 3.38641C3.94619 4.4493 3.86861 5.14919 3.8669 9.0441C3.86548 12.3524 3.83697 12.8435 3.63359 13.0682C3.15149 13.6009 2.47997 13.3007 1.95276 12.3168C1.765 11.9664 1.69173 11.4317 1.65012 10.1081L1.59521 8.36175L1.31542 9.05836C0.914279 10.0571 0.891281 12.0624 1.27212 12.8343C1.49736 13.2908 4.88724 16.9633 5.0834 16.9633C5.1146 16.9633 5.33359 16.7825 5.57003 16.5615ZM39.0158 15.2487C40.9794 13.2687 41.4017 12.5583 41.3954 11.2456C41.3912 10.4149 41.0156 8.60256 40.7975 8.36227C40.7293 8.28711 40.6769 9.00409 40.6769 10.0125C40.6769 11.5154 40.6332 11.8813 40.3988 12.3407C39.943 13.2341 39.3325 13.5299 38.779 13.1257C38.5232 12.9389 38.5032 12.6788 38.4374 8.6817L38.3674 4.43616L37.9571 3.59635C37.7176 3.10616 37.184 2.39235 36.6754 1.88174C35.7909 0.993895 35.1866 0.666411 35.8185 1.41738C36.2535 1.93437 37.0012 3.71571 37.1809 4.66333C37.4209 5.92878 37.3593 6.83589 37.0113 7.16008C36.5429 7.59643 36.199 7.58356 35.1037 7.08876L34.3595 6.75255L34.8428 7.41395C36.1102 9.14834 36.8586 11.3015 36.9957 13.6081C37.0666 14.8003 37.0421 15.0062 36.7654 15.5486L36.4559 16.1553L36.843 16.5593C37.0558 16.7815 37.2492 16.9633 37.2727 16.9633C37.2962 16.9633 38.0806 16.1917 39.0158 15.2487Z" stroke="black" stroke-width="2" mask="url(#path-1-outside-1_14_3)"/>
</svg>
